<?xml version="1.0" encoding="UTF-8"?>
<svg xmlns="http://www.w3.org/2000/svg" width="1878" height="409" viewBox="0 0 1878 409">
  <path d="M 1566 123 L 1566 128 L 1571 128 L 1571 124 L 1570 123 Z M 1801 12 L 1800 13 L 1800 17 L 1798 19 L 1794 19 L 1794 24 L 1793 25 L 1788 25 L 1787 24 L 1787 19 L 1776 19 L 1776 24 L 1775 25 L 1764 25 L 1764 30 L 1763 31 L 1752 31 L 1751 30 L 1751 25 L 1746 25 L 1745 24 L 1745 19 L 1740 19 L 1740 24 L 1739 25 L 1734 25 L 1734 30 L 1733 31 L 1728 31 L 1728 36 L 1727 37 L 1705 37 L 1704 38 L 1704 42 L 1703 43 L 1693 43 L 1692 44 L 1692 49 L 1691 50 L 1674 50 L 1674 55 L 1673 56 L 1656 56 L 1656 61 L 1655 62 L 1644 62 L 1644 67 L 1643 68 L 1638 68 L 1638 85 L 1643 85 L 1644 86 L 1644 91 L 1649 91 L 1650 92 L 1650 98 L 1649 99 L 1639 99 L 1639 103 L 1637 105 L 1633 105 L 1633 110 L 1632 111 L 1620 111 L 1620 116 L 1619 117 L 1614 117 L 1614 122 L 1613 123 L 1608 123 L 1607 122 L 1607 118 L 1606 117 L 1596 117 L 1595 116 L 1595 112 L 1594 111 L 1578 111 L 1578 116 L 1577 117 L 1572 117 L 1572 122 L 1583 122 L 1584 123 L 1584 128 L 1582 130 L 1581 129 L 1578 129 L 1578 135 L 1577 136 L 1571 136 L 1570 135 L 1569 135 L 1568 136 L 1566 136 L 1566 147 L 1565 148 L 1560 148 L 1560 153 L 1559 154 L 1554 154 L 1554 171 L 1559 171 L 1560 172 L 1560 177 L 1571 177 L 1572 178 L 1572 184 L 1571 185 L 1566 185 L 1566 202 L 1570 202 L 1571 201 L 1571 197 L 1572 196 L 1601 196 L 1602 197 L 1602 202 L 1600 204 L 1598 204 L 1597 203 L 1596 204 L 1596 220 L 1601 220 L 1601 215 L 1602 214 L 1606 214 L 1607 213 L 1607 209 L 1608 208 L 1613 208 L 1614 209 L 1614 214 L 1625 214 L 1626 215 L 1626 221 L 1625 222 L 1621 222 L 1620 223 L 1620 227 L 1619 228 L 1608 228 L 1608 233 L 1607 234 L 1602 234 L 1602 239 L 1601 240 L 1590 240 L 1589 239 L 1589 234 L 1584 234 L 1583 233 L 1583 228 L 1572 228 L 1571 227 L 1571 222 L 1554 222 L 1554 227 L 1553 228 L 1548 228 L 1548 232 L 1549 233 L 1565 233 L 1566 234 L 1566 240 L 1565 241 L 1554 241 L 1553 240 L 1549 240 L 1548 241 L 1548 245 L 1547 246 L 1542 246 L 1541 245 L 1541 240 L 1542 239 L 1547 239 L 1547 234 L 1542 234 L 1541 233 L 1541 229 L 1540 228 L 1518 228 L 1518 233 L 1517 234 L 1512 234 L 1511 233 L 1511 228 L 1512 227 L 1516 227 L 1517 226 L 1517 222 L 1506 222 L 1506 227 L 1505 228 L 1500 228 L 1500 233 L 1499 234 L 1495 234 L 1494 235 L 1494 239 L 1492 241 L 1483 241 L 1481 239 L 1481 235 L 1480 234 L 1465 234 L 1464 235 L 1464 239 L 1463 240 L 1452 240 L 1451 239 L 1451 198 L 1450 197 L 1446 197 L 1445 196 L 1445 173 L 1444 172 L 1442 172 L 1441 173 L 1439 171 L 1439 167 L 1438 166 L 1434 166 L 1433 165 L 1433 148 L 1428 148 L 1427 147 L 1427 142 L 1416 142 L 1416 147 L 1415 148 L 1410 148 L 1410 159 L 1415 159 L 1416 160 L 1416 165 L 1415 166 L 1410 166 L 1410 171 L 1408 173 L 1407 172 L 1406 173 L 1405 172 L 1404 172 L 1404 184 L 1403 185 L 1398 185 L 1397 184 L 1397 179 L 1392 179 L 1391 178 L 1391 173 L 1390 172 L 1389 173 L 1388 172 L 1387 173 L 1385 171 L 1385 154 L 1380 154 L 1379 153 L 1379 148 L 1368 148 L 1368 153 L 1367 154 L 1362 154 L 1362 171 L 1360 173 L 1358 173 L 1357 172 L 1356 172 L 1355 173 L 1354 172 L 1353 173 L 1351 173 L 1349 171 L 1349 166 L 1339 166 L 1338 167 L 1338 171 L 1336 173 L 1335 173 L 1334 172 L 1333 172 L 1332 173 L 1332 183 L 1337 183 L 1338 184 L 1338 190 L 1337 191 L 1333 191 L 1332 192 L 1332 196 L 1331 197 L 1327 197 L 1326 198 L 1326 208 L 1324 210 L 1320 210 L 1320 215 L 1319 216 L 1314 216 L 1314 221 L 1313 222 L 1308 222 L 1308 226 L 1309 227 L 1313 227 L 1314 228 L 1314 239 L 1319 239 L 1320 240 L 1320 251 L 1325 251 L 1326 252 L 1326 276 L 1325 277 L 1320 277 L 1319 276 L 1319 271 L 1314 271 L 1314 276 L 1313 277 L 1308 277 L 1308 288 L 1307 289 L 1302 289 L 1301 288 L 1301 265 L 1302 264 L 1306 264 L 1307 263 L 1307 253 L 1302 253 L 1301 252 L 1301 247 L 1300 246 L 1296 246 L 1295 245 L 1295 235 L 1294 234 L 1290 234 L 1289 233 L 1289 223 L 1288 222 L 1284 222 L 1283 221 L 1283 204 L 1282 203 L 1281 203 L 1280 204 L 1279 204 L 1277 202 L 1277 198 L 1276 197 L 1266 197 L 1266 202 L 1264 204 L 1263 203 L 1261 203 L 1260 204 L 1260 221 L 1259 222 L 1254 222 L 1254 227 L 1253 228 L 1248 228 L 1248 233 L 1247 234 L 1236 234 L 1236 239 L 1235 240 L 1225 240 L 1224 241 L 1224 245 L 1223 246 L 1218 246 L 1218 258 L 1217 259 L 1212 259 L 1212 270 L 1211 271 L 1206 271 L 1206 306 L 1211 306 L 1211 295 L 1212 294 L 1217 294 L 1217 289 L 1218 288 L 1223 288 L 1223 283 L 1224 282 L 1229 282 L 1229 277 L 1230 276 L 1235 276 L 1235 271 L 1236 270 L 1247 270 L 1248 271 L 1248 276 L 1247 277 L 1242 277 L 1242 282 L 1241 283 L 1236 283 L 1236 288 L 1235 289 L 1230 289 L 1230 294 L 1235 294 L 1235 289 L 1236 288 L 1241 288 L 1241 283 L 1242 282 L 1247 282 L 1247 277 L 1248 276 L 1253 276 L 1254 277 L 1254 288 L 1253 289 L 1248 289 L 1248 312 L 1249 313 L 1253 313 L 1254 314 L 1254 319 L 1253 320 L 1248 320 L 1247 319 L 1247 314 L 1236 314 L 1236 319 L 1235 320 L 1230 320 L 1229 319 L 1229 314 L 1224 314 L 1224 319 L 1223 320 L 1213 320 L 1212 321 L 1212 325 L 1210 327 L 1209 326 L 1206 326 L 1205 325 L 1205 320 L 1189 320 L 1188 321 L 1188 325 L 1187 326 L 1176 326 L 1176 331 L 1181 331 L 1182 332 L 1182 337 L 1180 339 L 1177 339 L 1175 337 L 1175 333 L 1174 332 L 1171 332 L 1170 333 L 1170 337 L 1168 339 L 1164 339 L 1164 343 L 1162 345 L 1159 345 L 1157 343 L 1157 332 L 1158 331 L 1163 331 L 1163 327 L 1162 326 L 1153 326 L 1152 327 L 1152 331 L 1150 333 L 1149 332 L 1147 332 L 1146 333 L 1146 337 L 1144 339 L 1140 339 L 1140 343 L 1138 345 L 1134 345 L 1133 344 L 1133 339 L 1128 339 L 1128 344 L 1127 345 L 1116 345 L 1115 344 L 1115 339 L 1114 338 L 1113 339 L 1110 339 L 1110 350 L 1109 351 L 1098 351 L 1098 356 L 1097 357 L 1092 357 L 1092 362 L 1091 363 L 1086 363 L 1085 362 L 1085 357 L 1080 357 L 1080 362 L 1079 363 L 1074 363 L 1074 374 L 1073 375 L 1068 375 L 1068 381 L 1067 382 L 990 382 L 989 381 L 989 376 L 954 376 L 954 381 L 953 382 L 942 382 L 941 381 L 941 376 L 918 376 L 917 375 L 917 364 L 916 363 L 913 363 L 912 364 L 912 368 L 910 370 L 900 370 L 900 375 L 899 376 L 894 376 L 894 381 L 893 382 L 882 382 L 881 381 L 881 376 L 864 376 L 863 375 L 863 370 L 840 370 L 840 375 L 839 376 L 822 376 L 821 375 L 821 374 L 820 373 L 820 372 L 821 371 L 821 370 L 816 370 L 816 375 L 815 376 L 810 376 L 810 381 L 809 382 L 798 382 L 797 381 L 797 380 L 796 379 L 796 376 L 774 376 L 773 375 L 773 374 L 772 373 L 772 372 L 773 371 L 772 370 L 756 370 L 756 375 L 755 376 L 750 376 L 749 375 L 749 358 L 748 357 L 745 357 L 744 358 L 744 369 L 743 370 L 738 370 L 738 375 L 737 376 L 732 376 L 731 375 L 731 370 L 726 370 L 726 381 L 725 382 L 720 382 L 719 381 L 719 376 L 715 376 L 713 374 L 713 369 L 712 368 L 711 369 L 710 368 L 709 369 L 708 368 L 708 364 L 706 362 L 705 362 L 704 361 L 704 358 L 703 358 L 703 360 L 704 361 L 700 365 L 701 366 L 700 367 L 700 368 L 699 369 L 698 369 L 696 367 L 696 366 L 697 365 L 698 365 L 697 365 L 695 363 L 693 363 L 692 362 L 691 363 L 689 361 L 690 360 L 690 358 L 688 356 L 687 357 L 686 356 L 685 356 L 685 357 L 683 359 L 684 360 L 684 361 L 683 362 L 682 362 L 681 363 L 679 361 L 679 360 L 680 359 L 680 358 L 679 358 L 679 364 L 678 365 L 679 366 L 679 368 L 677 370 L 672 370 L 672 375 L 671 376 L 666 376 L 665 375 L 665 370 L 654 370 L 654 375 L 653 376 L 648 376 L 647 375 L 647 370 L 637 370 L 635 368 L 635 364 L 634 363 L 630 363 L 629 364 L 627 364 L 626 363 L 625 364 L 624 364 L 623 363 L 623 357 L 624 356 L 628 356 L 629 355 L 629 346 L 628 345 L 624 345 L 622 343 L 622 341 L 623 340 L 622 339 L 622 314 L 619 314 L 618 315 L 618 326 L 617 327 L 612 327 L 610 325 L 610 324 L 611 323 L 610 322 L 611 321 L 610 320 L 607 320 L 606 321 L 605 320 L 605 290 L 604 289 L 603 290 L 602 290 L 601 289 L 600 290 L 600 301 L 599 302 L 595 302 L 594 303 L 594 332 L 593 333 L 588 333 L 587 332 L 587 315 L 586 314 L 584 314 L 583 315 L 581 313 L 581 302 L 577 302 L 577 326 L 576 327 L 576 328 L 577 329 L 577 331 L 575 333 L 571 333 L 571 335 L 570 336 L 570 349 L 571 350 L 572 349 L 575 349 L 576 350 L 576 354 L 577 355 L 575 357 L 572 357 L 571 358 L 569 356 L 569 351 L 565 351 L 564 352 L 564 362 L 563 363 L 559 363 L 558 364 L 558 369 L 557 370 L 552 370 L 551 369 L 551 364 L 550 363 L 546 363 L 545 362 L 545 358 L 544 357 L 541 357 L 540 358 L 540 362 L 539 363 L 535 363 L 534 364 L 534 369 L 533 370 L 523 370 L 521 368 L 521 364 L 520 363 L 517 363 L 516 364 L 516 368 L 514 370 L 511 370 L 509 368 L 509 364 L 508 363 L 504 363 L 503 362 L 503 358 L 502 357 L 499 357 L 498 358 L 498 362 L 497 363 L 492 363 L 491 364 L 488 364 L 487 363 L 486 364 L 486 369 L 485 370 L 480 370 L 479 369 L 479 364 L 478 363 L 478 358 L 477 358 L 478 359 L 478 361 L 477 362 L 476 362 L 475 363 L 474 362 L 474 359 L 473 358 L 473 356 L 472 355 L 472 354 L 473 353 L 473 352 L 472 351 L 469 351 L 468 352 L 468 357 L 467 358 L 467 359 L 468 360 L 466 362 L 464 362 L 463 361 L 463 358 L 463 361 L 462 362 L 462 363 L 461 364 L 461 367 L 460 368 L 459 368 L 458 369 L 457 368 L 456 368 L 455 367 L 455 366 L 456 365 L 455 364 L 455 363 L 454 362 L 454 358 L 454 361 L 453 362 L 452 362 L 451 363 L 449 361 L 450 360 L 450 359 L 449 358 L 449 352 L 448 351 L 445 351 L 444 352 L 444 358 L 443 359 L 444 360 L 444 361 L 442 363 L 441 362 L 439 362 L 437 364 L 432 364 L 432 369 L 431 370 L 421 370 L 419 368 L 419 363 L 415 363 L 414 364 L 414 368 L 412 370 L 409 370 L 407 368 L 407 363 L 404 363 L 403 364 L 401 362 L 401 357 L 397 357 L 396 358 L 396 362 L 395 363 L 391 363 L 390 364 L 390 369 L 389 370 L 378 370 L 377 369 L 377 368 L 376 367 L 376 366 L 377 365 L 376 364 L 372 364 L 370 362 L 369 362 L 368 363 L 366 361 L 366 358 L 365 357 L 365 352 L 364 351 L 361 351 L 360 352 L 360 354 L 361 355 L 360 356 L 360 357 L 359 358 L 359 361 L 358 362 L 355 362 L 353 364 L 348 364 L 346 362 L 346 358 L 342 358 L 343 359 L 343 361 L 342 362 L 342 363 L 341 364 L 341 367 L 340 368 L 337 368 L 335 370 L 330 370 L 328 368 L 327 368 L 326 369 L 325 369 L 324 368 L 324 364 L 323 363 L 323 362 L 322 361 L 323 360 L 323 358 L 322 357 L 321 358 L 320 358 L 319 357 L 318 358 L 318 363 L 317 364 L 317 368 L 316 369 L 315 368 L 314 369 L 313 369 L 312 368 L 312 364 L 311 363 L 300 363 L 299 362 L 299 358 L 298 357 L 294 357 L 294 362 L 293 363 L 288 363 L 288 368 L 286 370 L 283 370 L 281 368 L 281 364 L 280 363 L 279 364 L 278 364 L 277 363 L 276 364 L 276 369 L 275 370 L 264 370 L 263 369 L 263 364 L 258 364 L 258 375 L 257 376 L 252 376 L 251 375 L 251 370 L 241 370 L 239 368 L 239 363 L 235 363 L 234 364 L 234 368 L 232 370 L 229 370 L 227 368 L 227 364 L 226 363 L 223 363 L 222 364 L 222 368 L 220 370 L 217 370 L 215 368 L 215 364 L 214 363 L 210 363 L 209 362 L 209 358 L 208 357 L 205 357 L 204 358 L 204 362 L 202 364 L 201 364 L 200 363 L 199 364 L 198 364 L 198 369 L 197 370 L 193 370 L 191 368 L 191 363 L 190 362 L 190 358 L 186 358 L 184 356 L 184 352 L 182 352 L 183 353 L 183 355 L 182 356 L 181 356 L 180 355 L 180 352 L 178 350 L 178 349 L 177 349 L 176 350 L 175 350 L 173 352 L 169 352 L 169 353 L 170 352 L 172 352 L 173 353 L 173 355 L 172 356 L 169 356 L 167 358 L 167 361 L 166 362 L 163 362 L 162 361 L 162 358 L 160 356 L 160 352 L 157 352 L 157 353 L 158 352 L 159 352 L 160 353 L 160 355 L 159 356 L 157 356 L 155 358 L 155 361 L 154 362 L 150 362 L 150 363 L 149 364 L 149 367 L 148 368 L 147 367 L 147 368 L 146 369 L 143 366 L 144 365 L 144 364 L 142 362 L 142 358 L 142 359 L 141 360 L 142 361 L 141 362 L 139 362 L 137 364 L 137 368 L 136 369 L 135 368 L 134 369 L 133 368 L 133 367 L 132 367 L 132 375 L 131 376 L 120 376 L 120 381 L 119 382 L 114 382 L 113 381 L 113 376 L 108 376 L 107 375 L 107 370 L 96 370 L 96 375 L 95 376 L 84 376 L 84 381 L 83 382 L 66 382 L 65 381 L 65 376 L 54 376 L 54 381 L 53 382 L 38 382 L 37 383 L 36 383 L 35 382 L 35 376 L 30 376 L 30 381 L 28 383 L 17 383 L 17 384 L 16 385 L 15 385 L 14 386 L 13 385 L 12 386 L 95 386 L 97 388 L 97 392 L 97 388 L 98 387 L 107 387 L 108 386 L 131 386 L 133 388 L 134 387 L 192 387 L 192 382 L 193 381 L 239 381 L 240 382 L 240 387 L 241 388 L 242 387 L 249 387 L 250 388 L 252 386 L 257 386 L 259 388 L 259 398 L 259 389 L 260 388 L 261 388 L 262 387 L 275 387 L 275 383 L 277 381 L 280 381 L 282 383 L 282 388 L 283 387 L 384 387 L 384 382 L 385 381 L 424 381 L 426 383 L 426 387 L 427 388 L 428 387 L 491 387 L 492 386 L 492 384 L 491 383 L 493 381 L 538 381 L 539 382 L 539 386 L 540 387 L 645 387 L 646 388 L 648 386 L 652 386 L 653 387 L 655 387 L 656 388 L 657 387 L 663 387 L 664 388 L 666 386 L 671 386 L 673 388 L 674 387 L 710 387 L 711 388 L 712 388 L 714 386 L 725 386 L 727 388 L 727 392 L 728 391 L 727 390 L 727 388 L 728 387 L 729 387 L 730 388 L 732 386 L 737 386 L 739 388 L 739 392 L 739 388 L 740 387 L 749 387 L 750 386 L 755 386 L 757 388 L 757 389 L 757 388 L 758 387 L 771 387 L 772 388 L 772 391 L 771 392 L 772 392 L 772 388 L 774 386 L 815 386 L 817 388 L 818 387 L 822 387 L 823 386 L 838 386 L 839 387 L 840 387 L 841 388 L 842 387 L 863 387 L 864 386 L 899 386 L 900 387 L 915 387 L 916 388 L 916 398 L 916 388 L 918 386 L 1006 386 L 1007 387 L 1064 387 L 1065 386 L 1066 386 L 1068 388 L 1068 393 L 1067 394 L 1063 394 L 1062 395 L 1062 399 L 1061 400 L 1050 400 L 1049 399 L 1049 395 L 1048 394 L 1045 394 L 1044 395 L 1044 399 L 1049 399 L 1050 400 L 1050 406 L 1049 407 L 1044 407 L 1043 406 L 1043 401 L 1042 400 L 1038 400 L 1038 408 L 1876 408 L 1876 37 L 1875 36 L 1875 30 L 1876 29 L 1876 26 L 1875 25 L 1872 25 L 1871 24 L 1871 19 L 1842 19 L 1842 24 L 1841 25 L 1830 25 L 1829 24 L 1829 19 L 1825 19 L 1823 17 L 1823 13 L 1822 12 Z M 32 383 L 33 382 L 34 383 L 33 384 Z M 30 383 L 31 382 L 32 383 L 32 384 L 31 385 L 30 384 Z M 1079 363 L 1080 362 L 1084 362 L 1086 364 L 1086 368 L 1085 369 L 1080 369 L 1079 368 Z M 1193 338 L 1194 337 L 1199 337 L 1200 338 L 1200 344 L 1199 345 L 1194 345 L 1193 344 Z M 611 332 L 612 331 L 617 331 L 618 332 L 618 344 L 617 345 L 612 345 L 610 343 L 611 342 L 611 341 L 610 340 L 611 339 L 610 338 L 610 337 L 611 336 L 611 335 L 610 334 L 611 333 Z M 1199 326 L 1200 325 L 1205 325 L 1206 326 L 1206 331 L 1205 332 L 1202 332 L 1201 333 L 1199 331 Z M 1277 271 L 1278 270 L 1289 270 L 1290 271 L 1290 276 L 1289 277 L 1284 277 L 1284 294 L 1283 295 L 1279 295 L 1278 296 L 1278 301 L 1277 302 L 1272 302 L 1272 307 L 1271 308 L 1266 308 L 1265 307 L 1265 289 L 1266 288 L 1271 288 L 1271 277 L 1272 276 L 1277 276 Z M 1283 246 L 1284 245 L 1289 245 L 1290 246 L 1290 251 L 1295 251 L 1296 252 L 1296 258 L 1295 259 L 1290 259 L 1289 258 L 1289 253 L 1284 253 L 1283 252 Z M 1391 209 L 1392 208 L 1397 208 L 1398 209 L 1398 233 L 1397 234 L 1392 234 L 1392 239 L 1391 240 L 1386 240 L 1385 239 L 1385 215 L 1386 214 L 1391 214 Z M 1385 197 L 1386 196 L 1391 196 L 1392 197 L 1392 202 L 1390 204 L 1389 204 L 1388 203 L 1387 204 L 1385 202 Z" fill="#000000" fill-rule="evenodd" clip-rule="evenodd"/>
</svg>
